<svg width="1240" height="590" aria-label="A chart." style="overflow: hidden;"><defs id="_ABSTRACT_RENDERER_ID_19"><clipPath id="_ABSTRACT_RENDERER_ID_20"><rect x="201" y="113" width="839" height="365"></rect></clipPath></defs><rect x="0" y="0" width="1240" height="590" stroke="none" stroke-width="0" fill="#ffffff"></rect><g><text text-anchor="start" x="201" y="86.75" font-family="Arial" font-size="15" font-weight="bold" stroke="none" stroke-width="0" fill="#000000">Área das Classes de NDVI - Distrito de Chókwè (2025)</text><rect x="201" y="74" width="839" height="15" stroke="none" stroke-width="0" fill-opacity="0" fill="#ffffff"></rect></g><g><rect x="201" y="113" width="839" height="365" stroke="none" stroke-width="0" fill-opacity="0" fill="#ffffff"></rect><g clip-path="url(https://code.earthengine.google.com/#_ABSTRACT_RENDERER_ID_20)"><g><rect x="201" y="477" width="839" height="1" stroke="none" stroke-width="0" fill="#cccccc"></rect><rect x="201" y="404" width="839" height="1" stroke="none" stroke-width="0" fill="#cccccc"></rect><rect x="201" y="331" width="839" height="1" stroke="none" stroke-width="0" fill="#cccccc"></rect><rect x="201" y="259" width="839" height="1" stroke="none" stroke-width="0" fill="#cccccc"></rect><rect x="201" y="186" width="839" height="1" stroke="none" stroke-width="0" fill="#cccccc"></rect><rect x="201" y="113" width="839" height="1" stroke="none" stroke-width="0" fill="#cccccc"></rect><rect x="201" y="441" width="839" height="1" stroke="none" stroke-width="0" fill="#ebebeb"></rect><rect x="201" y="368" width="839" height="1" stroke="none" stroke-width="0" fill="#ebebeb"></rect><rect x="201" y="295" width="839" height="1" stroke="none" stroke-width="0" fill="#ebebeb"></rect><rect x="201" y="222" width="839" height="1" stroke="none" stroke-width="0" fill="#ebebeb"></rect><rect x="201" y="149" width="839" height="1" stroke="none" stroke-width="0" fill="#ebebeb"></rect></g><g><rect x="234" y="473" width="103" height="4" stroke="none" stroke-width="0" fill="#4caf50"></rect><rect x="401" y="456" width="104" height="21" stroke="none" stroke-width="0" fill="#4caf50"></rect><rect x="569" y="127" width="103" height="350" stroke="none" stroke-width="0" fill="#4caf50"></rect><rect x="736" y="116" width="104" height="361" stroke="none" stroke-width="0" fill="#4caf50"></rect><rect x="904" y="328" width="103" height="149" stroke="none" stroke-width="0" fill="#4caf50"></rect></g><g><rect x="201" y="477" width="839" height="1" stroke="none" stroke-width="0" fill="#333333"></rect></g></g><g></g><g><g><text text-anchor="middle" x="285.3" y="499.75" font-family="Arial" font-size="15" stroke="none" stroke-width="0" fill="#222222">Água / Sem vegetação</text></g><g><text text-anchor="middle" x="452.9" y="499.75" font-family="Arial" font-size="15" stroke="none" stroke-width="0" fill="#222222">Solo exposto</text></g><g><text text-anchor="middle" x="620.5" y="499.75" font-family="Arial" font-size="15" stroke="none" stroke-width="0" fill="#222222">Vegetação escassa</text></g><g><text text-anchor="middle" x="788.1" y="499.75" font-family="Arial" font-size="15" stroke="none" stroke-width="0" fill="#222222">Vegetação moderada</text></g><g><text text-anchor="middle" x="955.6999999999999" y="499.75" font-family="Arial" font-size="15" stroke="none" stroke-width="0" fill="#222222">Vegetação densa</text></g><g><text text-anchor="end" x="186" y="482.75" font-family="Arial" font-size="15" stroke="none" stroke-width="0" fill="#444444">0</text></g><g><text text-anchor="end" x="186" y="409.95" font-family="Arial" font-size="15" stroke="none" stroke-width="0" fill="#444444">200</text></g><g><text text-anchor="end" x="186" y="337.15" font-family="Arial" font-size="15" stroke="none" stroke-width="0" fill="#444444">400</text></g><g><text text-anchor="end" x="186" y="264.35" font-family="Arial" font-size="15" stroke="none" stroke-width="0" fill="#444444">600</text></g><g><text text-anchor="end" x="186" y="191.55" font-family="Arial" font-size="15" stroke="none" stroke-width="0" fill="#444444">800</text></g><g><text text-anchor="end" x="186" y="118.75" font-family="Arial" font-size="15" stroke="none" stroke-width="0" fill="#444444">1,000</text></g></g></g><g><g><text text-anchor="middle" x="620.5" y="551.25" font-family="Arial" font-size="15" font-style="italic" stroke="none" stroke-width="0" fill="#222222">Classes de NDVI</text><rect x="201" y="538.5" width="839" height="15" stroke="none" stroke-width="0" fill-opacity="0" fill="#ffffff"></rect></g><g><text text-anchor="middle" x="79.25" y="295.5" font-family="Arial" font-size="15" font-style="italic" transform="rotate(-90 79.25 295.5)" stroke="none" stroke-width="0" fill="#222222">Área (km²)</text><path d="M66.49999999999999,478L66.50000000000001,113L81.50000000000001,113L81.49999999999999,478Z" stroke="none" stroke-width="0" fill-opacity="0" fill="#ffffff"></path></g></g><g></g></svg>